<?xml version="1.0"?>
<svg xmlns="http://www.w3.org/2000/svg" viewBox="0 0 32 32">
    <path style="text-indent:0;text-align:start;line-height:normal;text-transform:none;block-progression:tb;" d="M 9 4 C 7.3549372 4 6 5.3549372 6 7 L 6 25 C 6 26.645063 7.3549372 28 9 28 L 23 28 C 24.645063 28 26 26.645063 26 25 L 26 7 C 26 5.3549372 24.645063 4 23 4 L 9 4 z M 9 6 L 23 6 C 23.562937 6 24 6.4370628 24 7 L 24 25 C 24 25.562937 23.562937 26 23 26 L 9 26 C 8.4370628 26 8 25.562937 8 25 L 8 7 C 8 6.4370628 8.4370628 6 9 6 z M 13 8 L 11 8.03125 C 11 8.03125 10.986 17.038 11 17 C 18.648 13.405 19 15.8125 19 15.8125 L 19 24 L 21 24 L 21 15.84375 C 21 10.81475 13 14 13 14 L 13 8 z M 19.28125 8 C 19.28125 8 17.944 9.845 17 11 L 19.625 11 C 21.049 9.157 22 8 22 8 L 19.28125 8 z M 11 19 L 11 23.96875 L 14 21.5 L 11 19 z" overflow="visible" font-family="Sans"/>
</svg>
